Coordinates
version=1
nRows=60
nColumns=12
inDegrees=yes

Units are S.I. units (second, meters, Newtons, ...)
Angles are in degrees

endheader
time	SC_y	SC_z	SC_x	AC_y	AC_z	AC_x	GH_y	GH_z	GH_yy	EL_x	PS_y
       0.0              -49.56          1.495          21.91          66.58         -7.759         -8.002          121.1           31.2         -53.59          117.0          71.13
   0.02949              -49.55          1.497          21.91          66.57          -7.76         -8.002          121.1           31.2         -53.58          117.0          71.13
   0.05898              -49.55            1.5          21.92          66.57         -7.762         -8.002          121.0           31.2         -53.58          117.0          71.14
   0.08847              -49.54          1.502          21.92          66.56         -7.763         -8.002          121.0          31.21         -53.57          117.0          71.15
     0.118              -49.54          1.505          21.92          66.56         -7.765         -8.002          120.9          31.21         -53.56          116.9          71.15
    0.1475              -49.53          1.508          21.92          66.55         -7.767         -8.002          120.9          31.22         -53.56          116.9          71.16
    0.1769              -49.53          1.512          21.92          66.55         -7.769         -8.002          120.8          31.22         -53.55          116.9          71.17
    0.2064              -49.52          1.515          21.92          66.54         -7.771         -8.002          120.8          31.22         -53.54          116.9          71.18
    0.2359              -49.52          1.519          21.93          66.53         -7.773         -8.001          120.7          31.23         -53.53          116.9          71.19
    0.2654              -49.51          1.523          21.93          66.52         -7.775         -8.001          120.6          31.23         -53.52          116.9           71.2
    0.2949               -49.5          1.527          21.93          66.51         -7.778         -8.001          120.6          31.24         -53.51          116.9          71.21
    0.3244              -49.49          1.532          21.93           66.5         -7.781         -8.001          120.5          31.24          -53.5          116.9          71.22
    0.3539              -49.49          1.537          21.94          66.49         -7.784         -8.001          120.4          31.25         -53.49          116.9          71.23
    0.3834              -49.48          1.542          21.94          66.48         -7.787         -8.001          120.3          31.26         -53.47          116.9          71.25
    0.4129              -49.47          1.548          21.94          66.47          -7.79           -8.0          120.2          31.26         -53.46          116.9          71.26
    0.4424              -49.46          1.554          21.95          66.46         -7.794           -8.0          120.1          31.27         -53.44          116.9          71.28
    0.4719              -49.45          1.561          21.95          66.45         -7.798           -8.0          120.0          31.28         -53.43          116.8           71.3
    0.5014              -49.43          1.569          21.95          66.43         -7.803         -7.999          119.9          31.29         -53.41          116.8          71.32
    0.5308              -49.42          1.577          21.96          66.41         -7.808         -7.999          119.7           31.3         -53.39          116.8          71.34
    0.5603              -49.41          1.586          21.96           66.4         -7.813         -7.999          119.6          31.31         -53.36          116.8          71.36
    0.5898              -49.39          1.596          21.97          66.38         -7.819         -7.998          119.4          31.32         -53.34          116.8          71.38
    0.6193              -49.37          1.607          21.97          66.35         -7.825         -7.998          119.2          31.34         -53.31          116.8          71.41
    0.6488              -49.35          1.619          21.98          66.33         -7.832         -7.998          119.0          31.35         -53.28          116.7          71.44
    0.6783              -49.33          1.632          21.99           66.3          -7.84         -7.997          118.8          31.37         -53.25          116.7          71.48
    0.7078              -49.31          1.647           22.0          66.27         -7.849         -7.996          118.5          31.39         -53.21          116.7          71.51
    0.7373              -49.28          1.663          22.01          66.24         -7.859         -7.996          118.2          31.41         -53.17          116.7          71.55
    0.7668              -49.25          1.682          22.02           66.2          -7.87         -7.995          117.9          31.43         -53.13          116.6           71.6
    0.7963              -49.21          1.702          22.03          66.16         -7.882         -7.994          117.6          31.45         -53.08          116.6          71.65
    0.8258              -49.17          1.726          22.04          66.12         -7.896         -7.993          117.2          31.48         -53.02          116.6          71.71
    0.8552              -49.13          1.752          22.06          66.06         -7.912         -7.992          116.7          31.52         -52.95          116.5          71.78
    0.8847              -49.08          1.783          22.07           66.0          -7.93         -7.991          116.2          31.55         -52.88          116.4          71.86
    0.9142              -49.02          1.818          22.09          65.93         -7.951          -7.99          115.6           31.6         -52.79          116.4          71.95
    0.9437              -48.96          1.858          22.11          65.85         -7.974         -7.988          114.9          31.65         -52.69          116.3          72.05
    0.9732              -48.88          1.905          22.14          65.76         -8.002         -7.986          114.1           31.7         -52.58          116.2          72.17
     1.003              -48.79          1.959          22.17          65.65         -8.035         -7.984          113.2          31.77         -52.44          116.1          72.31
     1.032              -48.68          2.024           22.2          65.52         -8.073         -7.982          112.1          31.85         -52.28          116.0          72.47
     1.062              -48.56          2.101          22.25          65.36         -8.119         -7.979          110.7          31.95         -52.09          115.9          72.67
     1.091              -48.41          2.193           22.3          65.18         -8.173         -7.975          109.2          32.06         -51.87          115.7           72.9
     1.121              -48.22          2.304          22.36          64.96         -8.239          -7.97          107.3           32.2         -51.59          115.5          73.18
      1.15               -48.0           2.44          22.43          64.68          -8.32         -7.965          104.9          32.36         -51.26          115.3          73.53
      1.18              -47.72          2.607          22.52          64.35          -8.42         -7.959          102.1          32.57         -50.84          115.0          73.95
     1.209              -47.38          2.817          22.64          63.93         -8.544          -7.95          98.48          32.83         -50.33          114.6          74.48
     1.239              -46.94           3.08          22.78           63.4           -8.7          -7.94          93.96          33.15         -49.68          114.1          75.15
     1.268              -46.39          3.415          22.97          62.73         -8.899         -7.927          88.22          33.57         -48.85          113.5           76.0
     1.298              -45.69          3.844           23.2          61.87         -9.154          -7.91          80.88           34.1         -47.79          112.7          77.09
     1.327              -44.78          4.394          23.51          60.77          -9.48         -7.888          71.45          34.77         -46.43          111.7          78.49
     1.357              -43.62          5.096          23.89          59.36         -9.898          -7.86          59.42          35.64          -44.7          110.5          80.27
     1.386              -42.17           5.98          24.38          57.59         -10.42         -7.825          44.28          36.73         -42.52          108.9          82.52
     1.416              -40.39          7.056          24.97          55.43         -11.06         -7.783          25.83          38.06         -39.86          106.9          85.25
     1.445              -38.34          8.304          25.65          52.93          -11.8         -7.734          4.446           39.6         -36.78          104.7          88.42
     1.475              -36.11          9.655          26.39          50.22         -12.61          -7.68         -18.71          41.26         -33.45          102.3          91.85
     1.504              -33.89          11.01          27.14          47.51         -13.41         -7.627         -41.86          42.93         -30.11          99.82          95.28
     1.534              -31.83          12.25          27.82          45.01         -14.15         -7.578         -63.24          44.47         -27.03          97.57          98.45
     1.563              -30.06          13.33          28.41          42.85         -14.79         -7.536         -81.69          45.79         -24.38          95.63          101.2
     1.593               -28.6          14.21           28.9          41.08         -15.31         -7.501         -96.83          46.88          -22.2          94.04          103.4
     1.622              -27.45          14.92          29.28          39.67         -15.73         -7.473         -108.9          47.75         -20.46          92.77          105.2
     1.652              -26.54          15.47          29.59          38.57         -16.06         -7.451         -118.3          48.43          -19.1          91.78          106.6
     1.681              -25.83           15.9          29.82          37.71         -16.31         -7.434         -125.6          48.96         -18.05          91.01          107.7
      1.71              -25.28          16.23          30.01          37.04         -16.51         -7.421         -131.4          49.37         -17.22           90.4          108.5
      1.74              -24.85          16.49          30.15          36.51         -16.67         -7.411         -135.9           49.7         -16.57          89.93          109.2
